<svg version="1.1" xmlns="http://www.w3.org/2000/svg" width="1400" height="100"><defs><clipPath id="kfEpkCRlsxzi"><path fill="none" stroke="none" d="M 77.5 5.5 L 1370.5 5.5 L 1370.5 94.5 L 77.5 94.5 L 77.5 5.5 Z"/></clipPath><clipPath id="DPCkcxIOgEbh"><path fill="none" stroke="none" d="M 77.5 5.5 L 1370.5 5.5 L 1370.5 94.5 L 77.5 94.5 L 77.5 5.5 Z"/></clipPath><clipPath id="QqpxdWJxHwRG"><path fill="none" stroke="none" d="M 77.5 5.5 L 1370.5 5.5 L 1370.5 94.5 L 77.5 94.5 L 77.5 5.5 Z"/></clipPath><clipPath id="rQbZiZWzzekA"><path fill="none" stroke="none" d="M 77.5 5.5 L 1370.5 5.5 L 1370.5 94.5 L 77.5 94.5 L 77.5 5.5 Z"/></clipPath></defs><path fill="rgb(255,255,255)" stroke="none" paint-order="stroke" d="M 0.5 0.5 L 1400.5 0.5 L 1400.5 100.5 L 0.5 100.5 L 0.5 0.5 Z" fill-opacity="1"/><rect fill="#FFFFFF" stroke="none" x="77" y="5" width="1293" height="89" transform="matrix(1, 0, 0, 1, 0.5, 0.5)"/><path fill="rgb(255,255,255)" stroke="none" paint-order="stroke" d="M 77.5 5.5 L 1370.5 5.5 L 1370.5 94.5 L 77.5 94.5 L 77.5 5.5 Z" fill-opacity="1"/><path fill="none" stroke="rgb(229,229,229)" paint-order="fill" d="M 77.5 5.5 L 1370.5 5.5 L 1370.5 94.5 L 77.5 94.5 L 77.5 5.5 Z" stroke-opacity="1" stroke-linejoin="bevel" stroke-miterlimit="10"/><path fill="none" stroke="rgb(229,229,229)" paint-order="fill" d="M 136.5 94.5 L 136.5 5.5 M 381.5 94.5 L 381.5 5.5 M 625.5 94.5 L 625.5 5.5 M 870.5 94.5 L 870.5 5.5 M 1115.5 94.5 L 1115.5 5.5 M 1360.5 94.5 L 1360.5 5.5" stroke-opacity="1" stroke-linejoin="bevel" stroke-miterlimit="10" clip-path="url(#kfEpkCRlsxzi)"/><path fill="none" stroke="rgb(229,229,229)" paint-order="fill" d="M 77.5 90.5 L 1370.5 90.5 M 77.5 77.5 L 1370.5 77.5 M 77.5 65.5 L 1370.5 65.5 M 77.5 52.5 L 1370.5 52.5 M 77.5 39.5 L 1370.5 39.5 M 77.5 26.5 L 1370.5 26.5 M 77.5 14.5 L 1370.5 14.5" stroke-opacity="1" stroke-linejoin="bevel" stroke-miterlimit="10" clip-path="url(#DPCkcxIOgEbh)"/><path fill="none" stroke="rgb(0,0,0)" paint-order="fill" d="M 136.27272033691406 84.34819793701172 L 138.72064208984375 83.83934020996094 L 141.16856384277344 76.20640563964844 L 143.61647033691406 70.10005950927734 L 146.06439208984375 75.18868255615234 L 148.51229858398438 83.33047485351562 L 150.96022033691406 84.85706329345703 L 153.4081268310547 81.29502868652344 L 155.85604858398438 81.80388641357422 L 158.30397033691406 86.89250946044922 L 160.7518768310547 85.36592102050781 L 163.19979858398438 87.40137481689453 L 165.647705078125 84.34819793701172 L 168.0956268310547 83.83934020996094 L 170.5435333251953 86.3836441040039 L 172.991455078125 87.40137481689453 L 175.43936157226562 89.43682098388672 L 177.8872833251953 87.40137481689453 L 180.335205078125 87.40137481689453 L 182.78311157226562 89.94568634033203 L 185.2310333251953 89.94568634033203 L 187.67893981933594 84.85706329345703 L 190.12686157226562 89.94568634033203 L 192.57476806640625 84.85706329345703 L 195.02268981933594 86.3836441040039 L 197.47061157226562 89.43682098388672 L 199.91851806640625 89.43682098388672 L 202.36643981933594 85.36592102050781 L 204.81434631347656 87.40137481689453 L 207.26226806640625 89.43682098388672 L 209.71017456054688 89.43682098388672 L 212.15809631347656 84.85706329345703 L 214.6060028076172 86.89250946044922 L 217.05392456054688 87.91023254394531 L 219.50184631347656 87.91023254394531 L 221.9497528076172 86.89250946044922 L 224.39767456054688 88.41909790039062 L 226.8455810546875 77.22412872314453 L 229.2935028076172 82.82160949707031 L 231.7414093017578 82.31275177001953 L 234.1893310546875 86.3836441040039 L 236.63723754882812 60.43167495727539 L 239.0851593017578 66.02915954589844 L 241.5330810546875 86.3836441040039 L 243.98098754882812 87.40137481689453 L 246.4289093017578 89.94568634033203 L 248.87681579589844 89.94568634033203 L 251.32473754882812 89.94568634033203 L 253.77264404296875 89.43682098388672 L 256.22056579589844 89.94568634033203 L 258.6684875488281 89.94568634033203 L 261.11639404296875 90.45454406738281 L 263.5643005371094 90.45454406738281 L 266.0122375488281 89.43682098388672 L 268.46014404296875 90.45454406738281 L 270.9080505371094 89.94568634033203 L 273.35595703125 90.45454406738281 L 275.80389404296875 88.41909790039062 L 278.2518005371094 89.94568634033203 L 280.69970703125 90.45454406738281 L 283.14764404296875 90.45454406738281 L 285.5955505371094 90.45454406738281 L 288.04345703125 90.45454406738281 L 290.4913635253906 88.9279556274414 L 292.9393005371094 84.34819793701172 L 295.38720703125 85.36592102050781 L 297.8351135253906 88.9279556274414 L 300.2830505371094 90.45454406738281 L 302.73095703125 90.45454406738281 L 305.1788635253906 90.45454406738281 L 307.62677001953125 89.94568634033203 L 310.07470703125 89.43682098388672 L 312.5226135253906 90.45454406738281 L 314.97052001953125 89.94568634033203 L 317.41845703125 90.45454406738281 L 319.8663635253906 90.45454406738281 L 322.31427001953125 89.43682098388672 L 324.7621765136719 88.41909790039062 L 327.2101135253906 89.43682098388672 L 329.65802001953125 89.43682098388672 L 332.1059265136719 86.89250946044922 L 334.5538330078125 87.40137481689453 L 337.00177001953125 62.467124938964844 L 339.4496765136719 56.8696403503418 L 341.8975830078125 78.24185180664062 L 344.34552001953125 78.75071716308594 L 346.7934265136719 76.71526336669922 L 349.2413330078125 76.71526336669922 L 351.6892395019531 83.33047485351562 L 354.1371765136719 83.83934020996094 L 356.5850830078125 84.85706329345703 L 359.0329895019531 86.89250946044922 L 361.4809265136719 87.91023254394531 L 363.9288330078125 79.25957489013672 L 366.3767395019531 90.45454406738281 L 368.82464599609375 86.89250946044922 L 371.2725830078125 88.41909790039062 L 373.7204895019531 87.40137481689453 L 376.16839599609375 88.41909790039062 L 378.6163330078125 88.9279556274414 L 381.0642395019531 88.41909790039062 L 383.51214599609375 88.41909790039062 L 385.9600524902344 87.40137481689453 L 388.4079895019531 83.33047485351562 L 390.85589599609375 82.31275177001953 L 393.3038024902344 88.41909790039062 L 395.7517395019531 89.94568634033203 L 398.19964599609375 88.9279556274414 L 400.6475524902344 87.91023254394531 L 403.095458984375 88.9279556274414 L 405.54339599609375 87.91023254394531 L 407.9913024902344 87.40137481689453 L 410.439208984375 87.40137481689453 L 412.8871154785156 86.89250946044922 L 415.3350524902344 90.45454406738281 L 417.782958984375 90.45454406738281 L 420.2308654785156 85.87478637695312 L 422.6788024902344 89.43682098388672 L 425.126708984375 88.41909790039062 L 427.5746154785156 78.24185180664062 L 430.02252197265625 87.40137481689453 L 432.470458984375 45.6746711730957 L 434.9183654785156 71.62664031982422 L 437.36627197265625 86.89250946044922 L 439.814208984375 87.91023254394531 L 442.2621154785156 90.45454406738281 L 444.71002197265625 88.9279556274414 L 447.1579284667969 90.45454406738281 L 449.6058654785156 88.41909790039062 L 452.05377197265625 86.3836441040039 L 454.5016784667969 87.40137481689453 L 456.9496154785156 87.40137481689453 L 459.39752197265625 85.87478637695312 L 461.8454284667969 88.9279556274414 L 464.2933349609375 89.43682098388672 L 466.74127197265625 86.89250946044922 L 469.1891784667969 87.40137481689453 L 471.6370849609375 88.41909790039062 L 474.08502197265625 89.94568634033203 L 476.5329284667969 88.9279556274414 L 478.9808349609375 89.94568634033203 L 481.4287414550781 90.45454406738281 L 483.8766784667969 85.87478637695312 L 486.3245849609375 86.89250946044922 L 488.7724914550781 89.94568634033203 L 491.22039794921875 89.94568634033203 L 493.6683349609375 90.45454406738281 L 496.1162414550781 90.45454406738281 L 498.56414794921875 90.45454406738281 L 501.0120849609375 90.45454406738281 L 503.4599914550781 89.94568634033203 L 505.90789794921875 89.94568634033203 L 508.3558044433594 90.45454406738281 L 510.8037414550781 90.45454406738281 L 513.2516479492188 90.45454406738281 L 515.6995849609375 90.45454406738281 L 518.1474609375 89.94568634033203 L 520.5953979492188 87.91023254394531 L 523.0433349609375 90.45454406738281 L 525.4912109375 88.9279556274414 L 527.9391479492188 89.94568634033203 L 530.3870239257812 89.94568634033203 L 532.8349609375 87.40137481689453 L 535.2828979492188 67.04688262939453 L 537.7307739257812 87.40137481689453 L 540.1787109375 87.40137481689453 L 542.6266479492188 88.9279556274414 L 545.0745239257812 87.91023254394531 L 547.5224609375 87.40137481689453 L 549.9703979492188 85.87478637695312 L 552.4182739257812 88.41909790039062 L 554.8662109375 89.43682098388672 L 557.3141479492188 88.41909790039062 L 559.7620239257812 90.45454406738281 L 562.2099609375 89.94568634033203 L 564.6578369140625 89.94568634033203 L 567.1057739257812 90.45454406738281 L 569.5537109375 89.94568634033203 L 572.0015869140625 89.94568634033203 L 574.4495239257812 85.36592102050781 L 576.8974609375 89.43682098388672 L 579.3453369140625 89.94568634033203 L 581.7932739257812 89.94568634033203 L 584.2412109375 87.91023254394531 L 586.6890869140625 87.91023254394531 L 589.1370239257812 82.31275177001953 L 591.5848999023438 90.45454406738281 L 594.0328369140625 84.34819793701172 L 596.4807739257812 83.83934020996094 L 598.9286499023438 83.83934020996094 L 601.3765869140625 86.89250946044922 L 603.8245239257812 89.94568634033203 L 606.2723999023438 89.94568634033203 L 608.7203369140625 89.94568634033203 L 611.1682739257812 89.43682098388672 L 613.6161499023438 89.43682098388672 L 616.0640869140625 80.27729797363281 L 618.5120239257812 85.87478637695312 L 620.9598999023438 85.36592102050781 L 623.4078369140625 88.41909790039062 L 625.855712890625 88.41909790039062 L 628.3036499023438 54.3253288269043 L 630.7515869140625 65.01143646240234 L 633.199462890625 77.22412872314453 L 635.6473999023438 84.34819793701172 L 638.0953369140625 89.43682098388672 L 640.543212890625 88.9279556274414 L 642.9911499023438 88.9279556274414 L 645.4390869140625 81.80388641357422 L 647.886962890625 89.94568634033203 L 650.3348999023438 88.9279556274414 L 652.7828369140625 90.45454406738281 L 655.230712890625 90.45454406738281 L 657.6786499023438 90.45454406738281 L 660.1265258789062 89.43682098388672 L 662.574462890625 89.43682098388672 L 665.0223999023438 88.9279556274414 L 667.4702758789062 88.9279556274414 L 669.918212890625 90.45454406738281 L 672.3661499023438 90.45454406738281 L 674.8140258789062 90.45454406738281 L 677.261962890625 89.43682098388672 L 679.7098999023438 88.9279556274414 L 682.1577758789062 88.41909790039062 L 684.605712890625 87.40137481689453 L 687.0535888671875 87.91023254394531 L 689.5015258789062 89.43682098388672 L 691.949462890625 88.41909790039062 L 694.3973388671875 89.94568634033203 L 696.8452758789062 89.43682098388672 L 699.293212890625 89.94568634033203 L 701.7410888671875 90.45454406738281 L 704.1890258789062 88.9279556274414 L 706.636962890625 89.43682098388672 L 709.0848388671875 89.94568634033203 L 711.5327758789062 89.94568634033203 L 713.980712890625 89.94568634033203 L 716.4285888671875 85.87478637695312 L 718.8765258789062 87.40137481689453 L 721.3244018554688 86.89250946044922 L 723.7723388671875 89.43682098388672 L 726.2202758789062 87.91023254394531 L 728.6681518554688 86.89250946044922 L 731.1160888671875 82.31275177001953 L 733.5640258789062 82.82160949707031 L 736.0119018554688 87.91023254394531 L 738.4598388671875 87.40137481689453 L 740.9077758789062 88.9279556274414 L 743.3556518554688 85.87478637695312 L 745.8035888671875 86.3836441040039 L 748.25146484375 87.40137481689453 L 750.6994018554688 82.31275177001953 L 753.1473388671875 88.9279556274414 L 755.59521484375 89.43682098388672 L 758.0431518554688 89.94568634033203 L 760.4910888671875 89.94568634033203 L 762.93896484375 89.43682098388672 L 765.3869018554688 84.34819793701172 L 767.8348388671875 88.9279556274414 L 770.28271484375 89.94568634033203 L 772.7306518554688 89.94568634033203 L 775.1785888671875 90.45454406738281 L 777.62646484375 89.94568634033203 L 780.0744018554688 90.45454406738281 L 782.5222778320312 89.43682098388672 L 784.97021484375 90.45454406738281 L 787.4181518554688 85.87478637695312 L 789.8660278320312 86.3836441040039 L 792.31396484375 86.3836441040039 L 794.7619018554688 87.91023254394531 L 797.2097778320312 84.34819793701172 L 799.65771484375 88.9279556274414 L 802.1056518554688 86.89250946044922 L 804.5535278320312 87.91023254394531 L 807.00146484375 90.45454406738281 L 809.4493408203125 86.89250946044922 L 811.8972778320312 84.85706329345703 L 814.34521484375 87.91023254394531 L 816.7930908203125 82.82160949707031 L 819.2410278320312 84.34819793701172 L 821.68896484375 90.45454406738281 L 824.1368408203125 88.41909790039062 L 826.5847778320312 78.75071716308594 L 829.03271484375 76.71526336669922 L 831.4805908203125 89.94568634033203 L 833.9285278320312 88.9279556274414 L 836.37646484375 88.9279556274414 L 838.8243408203125 89.94568634033203 L 841.2722778320312 90.45454406738281 L 843.7201538085938 89.43682098388672 L 846.1680908203125 89.94568634033203 L 848.6160278320312 88.9279556274414 L 851.0639038085938 89.94568634033203 L 853.5118408203125 88.9279556274414 L 855.9597778320312 90.45454406738281 L 858.4076538085938 90.45454406738281 L 860.8555908203125 89.94568634033203 L 863.3035278320312 89.94568634033203 L 865.7514038085938 89.94568634033203 L 868.1993408203125 86.89250946044922 L 870.6472778320312 81.80388641357422 L 873.0951538085938 84.85706329345703 L 875.5430908203125 78.24185180664062 L 877.990966796875 79.25957489013672 L 880.4389038085938 84.34819793701172 L 882.8868408203125 82.31275177001953 L 885.334716796875 89.43682098388672 L 887.7826538085938 89.94568634033203 L 890.2305908203125 90.45454406738281 L 892.678466796875 90.45454406738281 L 895.1264038085938 89.94568634033203 L 897.5743408203125 90.45454406738281 L 900.022216796875 90.45454406738281 L 902.4701538085938 90.45454406738281 L 904.9180297851562 88.9279556274414 L 907.365966796875 89.94568634033203 L 909.8139038085938 89.94568634033203 L 912.2617797851562 88.41909790039062 L 914.709716796875 90.45454406738281 L 917.1576538085938 90.45454406738281 L 919.6055297851562 90.45454406738281 L 922.053466796875 88.41909790039062 L 924.5014038085938 81.29502868652344 L 926.9492797851562 74.67981719970703 L 929.397216796875 76.20640563964844 L 931.8451538085938 79.76844024658203 L 934.2930297851562 82.82160949707031 L 936.740966796875 83.83934020996094 L 939.1888427734375 73.66209411621094 L 941.6367797851562 81.80388641357422 L 944.084716796875 83.83934020996094 L 946.5325927734375 79.25957489013672 L 948.9805297851562 87.40137481689453 L 951.428466796875 76.20640563964844 L 953.8763427734375 84.85706329345703 L 956.3242797851562 89.43682098388672 L 958.772216796875 84.85706329345703 L 961.2200927734375 90.45454406738281 L 963.6680297851562 90.45454406738281 L 966.1159057617188 86.89250946044922 L 968.5638427734375 89.43682098388672 L 971.0117797851562 88.41909790039062 L 973.4596557617188 89.94568634033203 L 975.9075927734375 89.43682098388672 L 978.3555297851562 88.9279556274414 L 980.8034057617188 89.94568634033203 L 983.2513427734375 89.94568634033203 L 985.6992797851562 88.9279556274414 L 988.1471557617188 88.9279556274414 L 990.5950927734375 88.9279556274414 L 993.0430297851562 90.45454406738281 L 995.4909057617188 87.40137481689453 L 997.9388427734375 86.89250946044922 L 1000.38671875 89.94568634033203 L 1002.8346557617188 87.40137481689453 L 1005.2825927734375 85.36592102050781 L 1007.73046875 87.91023254394531 L 1010.1784057617188 89.43682098388672 L 1012.6263427734375 86.89250946044922 L 1015.07421875 90.45454406738281 L 1017.5221557617188 90.45454406738281 L 1019.9700927734375 90.45454406738281 L 1022.41796875 88.9279556274414 L 1024.8658447265625 87.91023254394531 L 1027.3138427734375 88.9279556274414 L 1029.76171875 89.94568634033203 L 1032.2095947265625 89.43682098388672 L 1034.6575927734375 89.43682098388672 L 1037.10546875 87.91023254394531 L 1039.5533447265625 87.40137481689453 L 1042.0013427734375 89.43682098388672 L 1044.44921875 87.40137481689453 L 1046.8970947265625 88.41909790039062 L 1049.3450927734375 88.41909790039062 L 1051.79296875 85.36592102050781 L 1054.2408447265625 87.40137481689453 L 1056.6888427734375 88.41909790039062 L 1059.13671875 81.29502868652344 L 1061.5845947265625 88.9279556274414 L 1064.0325927734375 88.9279556274414 L 1066.48046875 85.36592102050781 L 1068.9283447265625 84.85706329345703 L 1071.3763427734375 86.89250946044922 L 1073.82421875 89.43682098388672 L 1076.2720947265625 89.94568634033203 L 1078.719970703125 89.94568634033203 L 1081.16796875 90.45454406738281 L 1083.6158447265625 88.41909790039062 L 1086.063720703125 88.9279556274414 L 1088.51171875 89.43682098388672 L 1090.9595947265625 90.45454406738281 L 1093.407470703125 90.45454406738281 L 1095.85546875 89.43682098388672 L 1098.3033447265625 88.9279556274414 L 1100.751220703125 84.85706329345703 L 1103.19921875 85.36592102050781 L 1105.6470947265625 90.45454406738281 L 1108.094970703125 88.41909790039062 L 1110.54296875 88.41909790039062 L 1112.9908447265625 88.41909790039062 L 1115.438720703125 81.80388641357422 L 1117.88671875 86.3836441040039 L 1120.3345947265625 90.45454406738281 L 1122.782470703125 90.45454406738281 L 1125.23046875 90.45454406738281 L 1127.6783447265625 88.41909790039062 L 1130.126220703125 86.3836441040039 L 1132.57421875 88.9279556274414 L 1135.0220947265625 90.45454406738281 L 1137.469970703125 86.3836441040039 L 1139.9178466796875 85.36592102050781 L 1142.3658447265625 83.33047485351562 L 1144.813720703125 83.33047485351562 L 1147.2615966796875 88.41909790039062 L 1149.7095947265625 89.43682098388672 L 1152.157470703125 86.3836441040039 L 1154.6053466796875 87.40137481689453 L 1157.0533447265625 88.9279556274414 L 1159.501220703125 88.41909790039062 L 1161.9490966796875 87.40137481689453 L 1164.3970947265625 86.3836441040039 L 1166.844970703125 87.40137481689453 L 1169.2928466796875 77.73299407958984 L 1171.7408447265625 89.94568634033203 L 1174.188720703125 89.94568634033203 L 1176.6365966796875 89.43682098388672 L 1179.0845947265625 89.43682098388672 L 1181.532470703125 89.94568634033203 L 1183.9803466796875 90.45454406738281 L 1186.4283447265625 90.45454406738281 L 1188.876220703125 89.43682098388672 L 1191.3240966796875 86.89250946044922 L 1193.7720947265625 87.40137481689453 L 1196.219970703125 87.91023254394531 L 1198.6678466796875 85.36592102050781 L 1201.11572265625 87.91023254394531 L 1203.563720703125 86.89250946044922 L 1206.0115966796875 88.9279556274414 L 1208.45947265625 88.41909790039062 L 1210.907470703125 88.41909790039062 L 1213.3553466796875 89.43682098388672 L 1215.80322265625 88.41909790039062 L 1218.251220703125 89.94568634033203 L 1220.6990966796875 85.36592102050781 L 1223.14697265625 89.94568634033203 L 1225.594970703125 90.45454406738281 L 1228.0428466796875 83.83934020996094 L 1230.49072265625 90.45454406738281 L 1232.938720703125 89.43682098388672 L 1235.3865966796875 85.87478637695312 L 1237.83447265625 89.43682098388672 L 1240.282470703125 89.94568634033203 L 1242.7303466796875 89.94568634033203 L 1245.17822265625 90.45454406738281 L 1247.626220703125 90.45454406738281 L 1250.0740966796875 89.94568634033203 L 1252.52197265625 88.9279556274414 L 1254.969970703125 80.27729797363281 L 1257.4178466796875 83.83934020996094 L 1259.86572265625 87.40137481689453 L 1262.3135986328125 85.36592102050781 L 1264.7615966796875 85.87478637695312 L 1267.20947265625 84.34819793701172 L 1269.6573486328125 83.83934020996094 L 1272.1053466796875 87.91023254394531 L 1274.55322265625 85.87478637695312 L 1277.0010986328125 87.91023254394531 L 1279.4490966796875 90.45454406738281 L 1281.89697265625 83.33047485351562 L 1284.3448486328125 86.3836441040039 L 1286.7928466796875 84.85706329345703 L 1289.24072265625 85.36592102050781 L 1291.6885986328125 89.94568634033203 L 1294.1365966796875 89.94568634033203 L 1296.58447265625 89.43682098388672 L 1299.0323486328125 85.36592102050781 L 1301.4803466796875 89.94568634033203 L 1303.92822265625 87.91023254394531 L 1306.3760986328125 83.83934020996094 L 1308.8240966796875 87.91023254394531" stroke-opacity="0.5019607843137255" stroke-linejoin="bevel" stroke-miterlimit="10" stroke-width="2" clip-path="url(#QqpxdWJxHwRG)"/><path fill="none" stroke="rgb(255,0,0)" paint-order="fill" d="M 136.27272033691406 85.87478637695312 L 138.72064208984375 85.36592102050781 L 141.16856384277344 60.43167495727539 L 143.61647033691406 47.710121154785156 L 146.06439208984375 69.08233642578125 L 148.51229858398438 73.66209411621094 L 150.96022033691406 70.60891723632812 L 153.4081268310547 79.76844024658203 L 155.85604858398438 77.22412872314453 L 158.30397033691406 84.85706329345703 L 160.7518768310547 89.43682098388672 L 163.19979858398438 83.83934020996094 L 165.647705078125 84.34819793701172 L 168.0956268310547 86.89250946044922 L 170.5435333251953 85.87478637695312 L 172.991455078125 89.94568634033203 L 175.43936157226562 88.41909790039062 L 177.8872833251953 81.29502868652344 L 180.335205078125 87.91023254394531 L 182.78311157226562 83.33047485351562 L 185.2310333251953 89.94568634033203 L 187.67893981933594 88.41909790039062 L 190.12686157226562 85.87478637695312 L 192.57476806640625 88.41909790039062 L 195.02268981933594 72.64437103271484 L 197.47061157226562 80.78616333007812 L 199.91851806640625 75.69754028320312 L 202.36643981933594 84.85706329345703 L 204.81434631347656 83.33047485351562 L 207.26226806640625 86.3836441040039 L 209.71017456054688 81.29502868652344 L 212.15809631347656 83.83934020996094 L 214.6060028076172 81.29502868652344 L 217.05392456054688 80.27729797363281 L 219.50184631347656 78.75071716308594 L 221.9497528076172 83.33047485351562 L 224.39767456054688 78.75071716308594 L 226.8455810546875 80.78616333007812 L 229.2935028076172 82.82160949707031 L 231.7414093017578 87.91023254394531 L 234.1893310546875 87.40137481689453 L 236.63723754882812 23.793596267700195 L 239.0851593017578 23.28473472595215 L 241.5330810546875 70.10005950927734 L 243.98098754882812 83.83934020996094 L 246.4289093017578 86.3836441040039 L 248.87681579589844 87.40137481689453 L 251.32473754882812 89.94568634033203 L 253.77264404296875 90.45454406738281 L 256.22056579589844 89.94568634033203 L 258.6684875488281 89.43682098388672 L 261.11639404296875 87.91023254394531 L 263.5643005371094 89.43682098388672 L 266.0122375488281 86.89250946044922 L 268.46014404296875 87.40137481689453 L 270.9080505371094 90.45454406738281 L 273.35595703125 88.41909790039062 L 275.80389404296875 86.3836441040039 L 278.2518005371094 87.91023254394531 L 280.69970703125 89.43682098388672 L 283.14764404296875 89.43682098388672 L 285.5955505371094 88.41909790039062 L 288.04345703125 88.9279556274414 L 290.4913635253906 89.94568634033203 L 292.9393005371094 88.9279556274414 L 295.38720703125 88.9279556274414 L 297.8351135253906 90.45454406738281 L 300.2830505371094 89.43682098388672 L 302.73095703125 88.41909790039062 L 305.1788635253906 86.3836441040039 L 307.62677001953125 88.9279556274414 L 310.07470703125 89.43682098388672 L 312.5226135253906 87.91023254394531 L 314.97052001953125 86.3836441040039 L 317.41845703125 83.33047485351562 L 319.8663635253906 87.40137481689453 L 322.31427001953125 87.40137481689453 L 324.7621765136719 88.9279556274414 L 327.2101135253906 88.41909790039062 L 329.65802001953125 88.41909790039062 L 332.1059265136719 83.83934020996094 L 334.5538330078125 88.41909790039062 L 337.00177001953125 70.60891723632812 L 339.4496765136719 42.11263656616211 L 341.8975830078125 42.621498107910156 L 344.34552001953125 59.4139518737793 L 346.7934265136719 72.64437103271484 L 349.2413330078125 77.22412872314453 L 351.6892395019531 81.80388641357422 L 354.1371765136719 73.66209411621094 L 356.5850830078125 83.33047485351562 L 359.0329895019531 89.43682098388672 L 361.4809265136719 84.85706329345703 L 363.9288330078125 89.43682098388672 L 366.3767395019531 88.9279556274414 L 368.82464599609375 86.3836441040039 L 371.2725830078125 86.3836441040039 L 373.7204895019531 88.41909790039062 L 376.16839599609375 87.40137481689453 L 378.6163330078125 87.91023254394531 L 381.0642395019531 87.91023254394531 L 383.51214599609375 88.9279556274414 L 385.9600524902344 84.85706329345703 L 388.4079895019531 84.85706329345703 L 390.85589599609375 85.36592102050781 L 393.3038024902344 77.73299407958984 L 395.7517395019531 76.71526336669922 L 398.19964599609375 81.80388641357422 L 400.6475524902344 75.69754028320312 L 403.095458984375 74.67981719970703 L 405.54339599609375 68.57347106933594 L 407.9913024902344 73.15322875976562 L 410.439208984375 80.78616333007812 L 412.8871154785156 85.36592102050781 L 415.3350524902344 84.85706329345703 L 417.782958984375 79.76844024658203 L 420.2308654785156 81.80388641357422 L 422.6788024902344 81.80388641357422 L 425.126708984375 84.85706329345703 L 427.5746154785156 84.34819793701172 L 430.02252197265625 87.91023254394531 L 432.470458984375 11.072041511535645 L 434.9183654785156 21.758148193359375 L 437.36627197265625 65.52029418945312 L 439.814208984375 84.34819793701172 L 442.2621154785156 84.85706329345703 L 444.71002197265625 83.83934020996094 L 447.1579284667969 87.91023254394531 L 449.6058654785156 88.9279556274414 L 452.05377197265625 90.45454406738281 L 454.5016784667969 88.9279556274414 L 456.9496154785156 87.91023254394531 L 459.39752197265625 88.9279556274414 L 461.8454284667969 89.94568634033203 L 464.2933349609375 88.41909790039062 L 466.74127197265625 87.91023254394531 L 469.1891784667969 88.9279556274414 L 471.6370849609375 89.43682098388672 L 474.08502197265625 89.94568634033203 L 476.5329284667969 87.40137481689453 L 478.9808349609375 88.41909790039062 L 481.4287414550781 89.94568634033203 L 483.8766784667969 90.45454406738281 L 486.3245849609375 90.45454406738281 L 488.7724914550781 89.43682098388672 L 491.22039794921875 89.94568634033203 L 493.6683349609375 87.91023254394531 L 496.1162414550781 88.9279556274414 L 498.56414794921875 88.41909790039062 L 501.0120849609375 89.43682098388672 L 503.4599914550781 87.91023254394531 L 505.90789794921875 87.40137481689453 L 508.3558044433594 88.9279556274414 L 510.8037414550781 89.94568634033203 L 513.2516479492188 88.41909790039062 L 515.6995849609375 86.3836441040039 L 518.1474609375 88.9279556274414 L 520.5953979492188 86.89250946044922 L 523.0433349609375 89.94568634033203 L 525.4912109375 86.3836441040039 L 527.9391479492188 88.9279556274414 L 530.3870239257812 86.89250946044922 L 532.8349609375 86.89250946044922 L 535.2828979492188 77.73299407958984 L 537.7307739257812 79.25957489013672 L 540.1787109375 72.64437103271484 L 542.6266479492188 72.64437103271484 L 545.0745239257812 75.18868255615234 L 547.5224609375 85.87478637695312 L 549.9703979492188 82.31275177001953 L 552.4182739257812 84.85706329345703 L 554.8662109375 88.9279556274414 L 557.3141479492188 90.45454406738281 L 559.7620239257812 90.45454406738281 L 562.2099609375 85.36592102050781 L 564.6578369140625 85.36592102050781 L 567.1057739257812 87.40137481689453 L 569.5537109375 85.87478637695312 L 572.0015869140625 86.89250946044922 L 574.4495239257812 85.87478637695312 L 576.8974609375 78.24185180664062 L 579.3453369140625 85.36592102050781 L 581.7932739257812 79.76844024658203 L 584.2412109375 88.41909790039062 L 586.6890869140625 81.29502868652344 L 589.1370239257812 78.24185180664062 L 591.5848999023438 79.25957489013672 L 594.0328369140625 86.3836441040039 L 596.4807739257812 81.80388641357422 L 598.9286499023438 80.27729797363281 L 601.3765869140625 86.3836441040039 L 603.8245239257812 82.82160949707031 L 606.2723999023438 86.89250946044922 L 608.7203369140625 85.87478637695312 L 611.1682739257812 80.27729797363281 L 613.6161499023438 73.15322875976562 L 616.0640869140625 86.3836441040039 L 618.5120239257812 81.80388641357422 L 620.9598999023438 80.78616333007812 L 623.4078369140625 81.80388641357422 L 625.855712890625 81.29502868652344 L 628.3036499023438 28.373355865478516 L 630.7515869140625 14.634077072143555 L 633.199462890625 51.7810173034668 L 635.6473999023438 73.15322875976562 L 638.0953369140625 83.83934020996094 L 640.543212890625 87.40137481689453 L 642.9911499023438 84.85706329345703 L 645.4390869140625 84.34819793701172 L 647.886962890625 88.9279556274414 L 650.3348999023438 90.45454406738281 L 652.7828369140625 90.45454406738281 L 655.230712890625 89.94568634033203 L 657.6786499023438 89.94568634033203 L 660.1265258789062 89.94568634033203 L 662.574462890625 90.45454406738281 L 665.0223999023438 90.45454406738281 L 667.4702758789062 90.45454406738281 L 669.918212890625 90.45454406738281 L 672.3661499023438 90.45454406738281 L 674.8140258789062 88.9279556274414 L 677.261962890625 86.89250946044922 L 679.7098999023438 85.36592102050781 L 682.1577758789062 87.40137481689453 L 684.605712890625 81.80388641357422 L 687.0535888671875 84.85706329345703 L 689.5015258789062 88.9279556274414 L 691.949462890625 88.41909790039062 L 694.3973388671875 88.9279556274414 L 696.8452758789062 86.89250946044922 L 699.293212890625 85.87478637695312 L 701.7410888671875 88.41909790039062 L 704.1890258789062 87.91023254394531 L 706.636962890625 88.41909790039062 L 709.0848388671875 87.91023254394531 L 711.5327758789062 87.91023254394531 L 713.980712890625 88.9279556274414 L 716.4285888671875 87.40137481689453 L 718.8765258789062 86.89250946044922 L 721.3244018554688 86.3836441040039 L 723.7723388671875 85.87478637695312 L 726.2202758789062 89.94568634033203 L 728.6681518554688 89.43682098388672 L 731.1160888671875 83.33047485351562 L 733.5640258789062 86.89250946044922 L 736.0119018554688 86.3836441040039 L 738.4598388671875 88.41909790039062 L 740.9077758789062 86.89250946044922 L 743.3556518554688 87.40137481689453 L 745.8035888671875 88.41909790039062 L 748.25146484375 86.3836441040039 L 750.6994018554688 84.34819793701172 L 753.1473388671875 87.40137481689453 L 755.59521484375 87.40137481689453 L 758.0431518554688 83.33047485351562 L 760.4910888671875 84.85706329345703 L 762.93896484375 85.36592102050781 L 765.3869018554688 78.75071716308594 L 767.8348388671875 87.91023254394531 L 770.28271484375 88.41909790039062 L 772.7306518554688 88.9279556274414 L 775.1785888671875 86.3836441040039 L 777.62646484375 82.82160949707031 L 780.0744018554688 75.18868255615234 L 782.5222778320312 85.87478637695312 L 784.97021484375 79.76844024658203 L 787.4181518554688 87.91023254394531 L 789.8660278320312 87.91023254394531 L 792.31396484375 83.83934020996094 L 794.7619018554688 84.85706329345703 L 797.2097778320312 82.82160949707031 L 799.65771484375 84.34819793701172 L 802.1056518554688 88.41909790039062 L 804.5535278320312 89.43682098388672 L 807.00146484375 87.40137481689453 L 809.4493408203125 88.41909790039062 L 811.8972778320312 83.83934020996094 L 814.34521484375 81.80388641357422 L 816.7930908203125 85.36592102050781 L 819.2410278320312 89.43682098388672 L 821.68896484375 88.41909790039062 L 824.1368408203125 67.04688262939453 L 826.5847778320312 9.545454978942871 L 829.03271484375 41.60377502441406 L 831.4805908203125 70.60891723632812 L 833.9285278320312 78.75071716308594 L 836.37646484375 80.78616333007812 L 838.8243408203125 84.34819793701172 L 841.2722778320312 83.33047485351562 L 843.7201538085938 84.85706329345703 L 846.1680908203125 83.33047485351562 L 848.6160278320312 82.82160949707031 L 851.0639038085938 88.41909790039062 L 853.5118408203125 89.94568634033203 L 855.9597778320312 89.43682098388672 L 858.4076538085938 89.94568634033203 L 860.8555908203125 88.9279556274414 L 863.3035278320312 88.9279556274414 L 865.7514038085938 90.45454406738281 L 868.1993408203125 88.9279556274414 L 870.6472778320312 86.89250946044922 L 873.0951538085938 88.41909790039062 L 875.5430908203125 89.94568634033203 L 877.990966796875 88.41909790039062 L 880.4389038085938 86.3836441040039 L 882.8868408203125 84.34819793701172 L 885.334716796875 87.40137481689453 L 887.7826538085938 82.31275177001953 L 890.2305908203125 88.41909790039062 L 892.678466796875 87.40137481689453 L 895.1264038085938 88.41909790039062 L 897.5743408203125 87.91023254394531 L 900.022216796875 84.85706329345703 L 902.4701538085938 86.3836441040039 L 904.9180297851562 77.73299407958984 L 907.365966796875 83.83934020996094 L 909.8139038085938 88.9279556274414 L 912.2617797851562 86.3836441040039 L 914.709716796875 84.85706329345703 L 917.1576538085938 87.91023254394531 L 919.6055297851562 87.91023254394531 L 922.053466796875 89.43682098388672 L 924.5014038085938 88.41909790039062 L 926.9492797851562 85.36592102050781 L 929.397216796875 87.40137481689453 L 931.8451538085938 87.40137481689453 L 934.2930297851562 83.83934020996094 L 936.740966796875 79.25957489013672 L 939.1888427734375 86.3836441040039 L 941.6367797851562 88.9279556274414 L 944.084716796875 88.41909790039062 L 946.5325927734375 81.80388641357422 L 948.9805297851562 88.41909790039062 L 951.428466796875 88.41909790039062 L 953.8763427734375 88.9279556274414 L 956.3242797851562 81.29502868652344 L 958.772216796875 83.83934020996094 L 961.2200927734375 82.31275177001953 L 963.6680297851562 85.87478637695312 L 966.1159057617188 80.27729797363281 L 968.5638427734375 83.83934020996094 L 971.0117797851562 84.34819793701172 L 973.4596557617188 90.45454406738281 L 975.9075927734375 84.34819793701172 L 978.3555297851562 87.40137481689453 L 980.8034057617188 85.36592102050781 L 983.2513427734375 77.22412872314453 L 985.6992797851562 85.36592102050781 L 988.1471557617188 87.40137481689453 L 990.5950927734375 79.25957489013672 L 993.0430297851562 85.87478637695312 L 995.4909057617188 84.34819793701172 L 997.9388427734375 78.24185180664062 L 1000.38671875 87.91023254394531 L 1002.8346557617188 88.41909790039062 L 1005.2825927734375 87.40137481689453 L 1007.73046875 84.34819793701172 L 1010.1784057617188 86.89250946044922 L 1012.6263427734375 87.40137481689453 L 1015.07421875 88.41909790039062 L 1017.5221557617188 81.29502868652344 L 1019.9700927734375 85.87478637695312 L 1022.41796875 61.9582633972168 L 1024.8658447265625 64.50257110595703 L 1027.3138427734375 87.91023254394531 L 1029.76171875 87.40137481689453 L 1032.2095947265625 87.40137481689453 L 1034.6575927734375 87.91023254394531 L 1037.10546875 87.91023254394531 L 1039.5533447265625 88.41909790039062 L 1042.0013427734375 89.43682098388672 L 1044.44921875 85.36592102050781 L 1046.8970947265625 88.9279556274414 L 1049.3450927734375 87.91023254394531 L 1051.79296875 88.41909790039062 L 1054.2408447265625 87.91023254394531 L 1056.6888427734375 87.91023254394531 L 1059.13671875 87.91023254394531 L 1061.5845947265625 86.3836441040039 L 1064.0325927734375 87.40137481689453 L 1066.48046875 84.85706329345703 L 1068.9283447265625 85.87478637695312 L 1071.3763427734375 85.87478637695312 L 1073.82421875 79.76844024658203 L 1076.2720947265625 85.36592102050781 L 1078.719970703125 87.91023254394531 L 1081.16796875 88.9279556274414 L 1083.6158447265625 86.89250946044922 L 1086.063720703125 85.87478637695312 L 1088.51171875 80.27729797363281 L 1090.9595947265625 87.91023254394531 L 1093.407470703125 87.91023254394531 L 1095.85546875 84.85706329345703 L 1098.3033447265625 88.41909790039062 L 1100.751220703125 87.91023254394531 L 1103.19921875 83.83934020996094 L 1105.6470947265625 79.76844024658203 L 1108.094970703125 79.25957489013672 L 1110.54296875 84.85706329345703 L 1112.9908447265625 81.80388641357422 L 1115.438720703125 83.83934020996094 L 1117.88671875 89.43682098388672 L 1120.3345947265625 84.34819793701172 L 1122.782470703125 82.82160949707031 L 1125.23046875 87.40137481689453 L 1127.6783447265625 85.36592102050781 L 1130.126220703125 83.33047485351562 L 1132.57421875 74.67981719970703 L 1135.0220947265625 89.43682098388672 L 1137.469970703125 88.9279556274414 L 1139.9178466796875 88.41909790039062 L 1142.3658447265625 82.82160949707031 L 1144.813720703125 85.87478637695312 L 1147.2615966796875 87.91023254394531 L 1149.7095947265625 85.87478637695312 L 1152.157470703125 86.3836441040039 L 1154.6053466796875 84.85706329345703 L 1157.0533447265625 83.33047485351562 L 1159.501220703125 85.87478637695312 L 1161.9490966796875 86.3836441040039 L 1164.3970947265625 88.9279556274414 L 1166.844970703125 84.85706329345703 L 1169.2928466796875 86.89250946044922 L 1171.7408447265625 87.91023254394531 L 1174.188720703125 83.33047485351562 L 1176.6365966796875 82.82160949707031 L 1179.0845947265625 83.83934020996094 L 1181.532470703125 89.94568634033203 L 1183.9803466796875 86.3836441040039 L 1186.4283447265625 89.94568634033203 L 1188.876220703125 87.91023254394531 L 1191.3240966796875 88.41909790039062 L 1193.7720947265625 85.87478637695312 L 1196.219970703125 84.34819793701172 L 1198.6678466796875 88.9279556274414 L 1201.11572265625 83.83934020996094 L 1203.563720703125 78.24185180664062 L 1206.0115966796875 88.9279556274414 L 1208.45947265625 88.41909790039062 L 1210.907470703125 87.40137481689453 L 1213.3553466796875 76.71526336669922 L 1215.80322265625 85.36592102050781 L 1218.251220703125 86.3836441040039 L 1220.6990966796875 84.34819793701172 L 1223.14697265625 89.43682098388672 L 1225.594970703125 81.29502868652344 L 1228.0428466796875 82.82160949707031 L 1230.49072265625 81.29502868652344 L 1232.938720703125 77.73299407958984 L 1235.3865966796875 81.80388641357422 L 1237.83447265625 86.89250946044922 L 1240.282470703125 80.27729797363281 L 1242.7303466796875 81.80388641357422 L 1245.17822265625 77.73299407958984 L 1247.626220703125 81.80388641357422 L 1250.0740966796875 77.22412872314453 L 1252.52197265625 80.27729797363281 L 1254.969970703125 85.87478637695312 L 1257.4178466796875 85.36592102050781 L 1259.86572265625 81.29502868652344 L 1262.3135986328125 84.34819793701172 L 1264.7615966796875 75.18868255615234 L 1267.20947265625 84.85706329345703 L 1269.6573486328125 85.36592102050781 L 1272.1053466796875 78.75071716308594 L 1274.55322265625 79.76844024658203 L 1277.0010986328125 81.29502868652344 L 1279.4490966796875 86.3836441040039 L 1281.89697265625 89.43682098388672 L 1284.3448486328125 83.33047485351562 L 1286.7928466796875 79.76844024658203 L 1289.24072265625 84.85706329345703 L 1291.6885986328125 84.85706329345703 L 1294.1365966796875 87.40137481689453 L 1296.58447265625 86.89250946044922 L 1299.0323486328125 90.45454406738281 L 1301.4803466796875 89.43682098388672 L 1303.92822265625 86.89250946044922 L 1306.3760986328125 84.85706329345703 L 1308.8240966796875 85.87478637695312" stroke-opacity="0.5019607843137255" stroke-linejoin="bevel" stroke-miterlimit="10" stroke-width="2" clip-path="url(#QqpxdWJxHwRG)"/><path fill="none" stroke="rgb(0,0,0)" paint-order="fill" d="M 77.5 94.5 L 1370.5 94.5" stroke-opacity="1" stroke-linejoin="bevel" stroke-miterlimit="10"/><path fill="none" stroke="rgb(0,0,0)" paint-order="fill" d="M 136.5 100.5 L 136.5 92.5 M 381.5 100.5 L 381.5 92.5 M 625.5 100.5 L 625.5 92.5 M 870.5 100.5 L 870.5 92.5 M 1115.5 100.5 L 1115.5 92.5 M 1360.5 100.5 L 1360.5 92.5" stroke-opacity="1" stroke-linejoin="bevel" stroke-miterlimit="10"/><path fill="none" stroke="rgb(0,0,0)" paint-order="fill" d="M 87.5 98.5 L 87.5 94.5 M 136.5 98.5 L 136.5 94.5 M 185.5 98.5 L 185.5 94.5 M 234.5 98.5 L 234.5 94.5 M 283.5 98.5 L 283.5 94.5 M 332.5 98.5 L 332.5 94.5 M 381.5 98.5 L 381.5 94.5 M 430.5 98.5 L 430.5 94.5 M 478.5 98.5 L 478.5 94.5 M 527.5 98.5 L 527.5 94.5 M 576.5 98.5 L 576.5 94.5 M 625.5 98.5 L 625.5 94.5 M 674.5 98.5 L 674.5 94.5 M 723.5 98.5 L 723.5 94.5 M 772.5 98.5 L 772.5 94.5 M 821.5 98.5 L 821.5 94.5 M 870.5 98.5 L 870.5 94.5 M 919.5 98.5 L 919.5 94.5 M 968.5 98.5 L 968.5 94.5 M 1017.5 98.5 L 1017.5 94.5 M 1066.5 98.5 L 1066.5 94.5 M 1115.5 98.5 L 1115.5 94.5 M 1164.5 98.5 L 1164.5 94.5 M 1213.5 98.5 L 1213.5 94.5 M 1262.5 98.5 L 1262.5 94.5 M 1311.5 98.5 L 1311.5 94.5 M 1360.5 98.5 L 1360.5 94.5" stroke-opacity="1" stroke-linejoin="bevel" stroke-miterlimit="10"/><text fill="rgb(68,68,68)" stroke="none" font-family="helvetica" font-size="0pt" font-style="normal" font-weight="normal" text-decoration="normal" x="135.77272033691406" y="105" text-anchor="start" dominant-baseline="alphabetic" transform="matrix(1, 0, 0, 1, 0.5, 0.5)" fill-opacity="1">0</text><text fill="none" stroke="rgb(0,0,0)" font-family="helvetica" font-size="0pt" font-style="normal" font-weight="normal" text-decoration="normal" x="135.77272033691406" y="105" text-anchor="start" dominant-baseline="alphabetic" transform="matrix(1, 0, 0, 1, 0.5, 0.5)" stroke-opacity="0" stroke-linejoin="bevel" stroke-miterlimit="10">0</text><text fill="rgb(68,68,68)" stroke="none" font-family="helvetica" font-size="0pt" font-style="normal" font-weight="normal" text-decoration="normal" x="380.5642395019531" y="105" text-anchor="start" dominant-baseline="alphabetic" transform="matrix(1, 0, 0, 1, 0.5, 0.5)" fill-opacity="1">5</text><text fill="none" stroke="rgb(0,0,0)" font-family="helvetica" font-size="0pt" font-style="normal" font-weight="normal" text-decoration="normal" x="380.5642395019531" y="105" text-anchor="start" dominant-baseline="alphabetic" transform="matrix(1, 0, 0, 1, 0.5, 0.5)" stroke-opacity="0" stroke-linejoin="bevel" stroke-miterlimit="10">5</text><text fill="rgb(68,68,68)" stroke="none" font-family="helvetica" font-size="0pt" font-style="normal" font-weight="normal" text-decoration="normal" x="625.355712890625" y="105" text-anchor="start" dominant-baseline="alphabetic" transform="matrix(1, 0, 0, 1, 0.5, 0.5)" fill-opacity="1">10</text><text fill="none" stroke="rgb(0,0,0)" font-family="helvetica" font-size="0pt" font-style="normal" font-weight="normal" text-decoration="normal" x="625.355712890625" y="105" text-anchor="start" dominant-baseline="alphabetic" transform="matrix(1, 0, 0, 1, 0.5, 0.5)" stroke-opacity="0" stroke-linejoin="bevel" stroke-miterlimit="10">10</text><text fill="rgb(68,68,68)" stroke="none" font-family="helvetica" font-size="0pt" font-style="normal" font-weight="normal" text-decoration="normal" x="870.1472778320312" y="105" text-anchor="start" dominant-baseline="alphabetic" transform="matrix(1, 0, 0, 1, 0.5, 0.5)" fill-opacity="1">15</text><text fill="none" stroke="rgb(0,0,0)" font-family="helvetica" font-size="0pt" font-style="normal" font-weight="normal" text-decoration="normal" x="870.1472778320312" y="105" text-anchor="start" dominant-baseline="alphabetic" transform="matrix(1, 0, 0, 1, 0.5, 0.5)" stroke-opacity="0" stroke-linejoin="bevel" stroke-miterlimit="10">15</text><text fill="rgb(68,68,68)" stroke="none" font-family="helvetica" font-size="0pt" font-style="normal" font-weight="normal" text-decoration="normal" x="1114.938720703125" y="105" text-anchor="start" dominant-baseline="alphabetic" transform="matrix(1, 0, 0, 1, 0.5, 0.5)" fill-opacity="1">20</text><text fill="none" stroke="rgb(0,0,0)" font-family="helvetica" font-size="0pt" font-style="normal" font-weight="normal" text-decoration="normal" x="1114.938720703125" y="105" text-anchor="start" dominant-baseline="alphabetic" transform="matrix(1, 0, 0, 1, 0.5, 0.5)" stroke-opacity="0" stroke-linejoin="bevel" stroke-miterlimit="10">20</text><text fill="rgb(68,68,68)" stroke="none" font-family="helvetica" font-size="0pt" font-style="normal" font-weight="normal" text-decoration="normal" x="1359.730224609375" y="105" text-anchor="start" dominant-baseline="alphabetic" transform="matrix(1, 0, 0, 1, 0.5, 0.5)" fill-opacity="1">25</text><text fill="none" stroke="rgb(0,0,0)" font-family="helvetica" font-size="0pt" font-style="normal" font-weight="normal" text-decoration="normal" x="1359.730224609375" y="105" text-anchor="start" dominant-baseline="alphabetic" transform="matrix(1, 0, 0, 1, 0.5, 0.5)" stroke-opacity="0" stroke-linejoin="bevel" stroke-miterlimit="10">25</text><path fill="none" stroke="rgb(0,0,0)" paint-order="fill" d="M 77.5 94.5 L 77.5 5.5" stroke-opacity="1" stroke-linejoin="bevel" stroke-miterlimit="10"/><path fill="none" stroke="rgb(0,0,0)" paint-order="fill" d="M 71.5 90.5 L 79.5 90.5 M 71.5 77.5 L 79.5 77.5 M 71.5 65.5 L 79.5 65.5 M 71.5 52.5 L 79.5 52.5 M 71.5 39.5 L 79.5 39.5 M 71.5 26.5 L 79.5 26.5 M 71.5 14.5 L 79.5 14.5" stroke-opacity="1" stroke-linejoin="bevel" stroke-miterlimit="10"/><path fill="none" stroke="rgb(0,0,0)" paint-order="fill" d="M 73.5 92.5 L 77.5 92.5 M 73.5 90.5 L 77.5 90.5 M 73.5 87.5 L 77.5 87.5 M 73.5 85.5 L 77.5 85.5 M 73.5 82.5 L 77.5 82.5 M 73.5 80.5 L 77.5 80.5 M 73.5 77.5 L 77.5 77.5 M 73.5 75.5 L 77.5 75.5 M 73.5 72.5 L 77.5 72.5 M 73.5 70.5 L 77.5 70.5 M 73.5 67.5 L 77.5 67.5 M 73.5 65.5 L 77.5 65.5 M 73.5 62.5 L 77.5 62.5 M 73.5 59.5 L 77.5 59.5 M 73.5 57.5 L 77.5 57.5 M 73.5 54.5 L 77.5 54.5 M 73.5 52.5 L 77.5 52.5 M 73.5 49.5 L 77.5 49.5 M 73.5 47.5 L 77.5 47.5 M 73.5 44.5 L 77.5 44.5 M 73.5 42.5 L 77.5 42.5 M 73.5 39.5 L 77.5 39.5 M 73.5 37.5 L 77.5 37.5 M 73.5 34.5 L 77.5 34.5 M 73.5 31.5 L 77.5 31.5 M 73.5 29.5 L 77.5 29.5 M 73.5 26.5 L 77.5 26.5 M 73.5 24.5 L 77.5 24.5 M 73.5 21.5 L 77.5 21.5 M 73.5 19.5 L 77.5 19.5 M 73.5 16.5 L 77.5 16.5 M 73.5 14.5 L 77.5 14.5 M 73.5 11.5 L 77.5 11.5 M 73.5 9.5 L 77.5 9.5 M 73.5 6.5 L 77.5 6.5" stroke-opacity="1" stroke-linejoin="bevel" stroke-miterlimit="10"/><text fill="rgb(68,68,68)" stroke="none" font-family="helvetica" font-size="11px" font-style="normal" font-weight="normal" text-decoration="normal" x="59.88232421875" y="93.95454406738281" text-anchor="start" dominant-baseline="alphabetic" transform="matrix(1, 0, 0, 1, 0.5, 0.5)" fill-opacity="1">0</text><text fill="none" stroke="rgb(0,0,0)" font-family="helvetica" font-size="11px" font-style="normal" font-weight="normal" text-decoration="normal" x="59.88232421875" y="93.95454406738281" text-anchor="start" dominant-baseline="alphabetic" transform="matrix(1, 0, 0, 1, 0.5, 0.5)" stroke-opacity="0" stroke-linejoin="bevel" stroke-miterlimit="10">0</text><text fill="rgb(68,68,68)" stroke="none" font-family="helvetica" font-size="11px" font-style="normal" font-weight="normal" text-decoration="normal" x="47.64697265625" y="81.23299407958984" text-anchor="start" dominant-baseline="alphabetic" transform="matrix(1, 0, 0, 1, 0.5, 0.5)" fill-opacity="1">500</text><text fill="none" stroke="rgb(0,0,0)" font-family="helvetica" font-size="11px" font-style="normal" font-weight="normal" text-decoration="normal" x="47.64697265625" y="81.23299407958984" text-anchor="start" dominant-baseline="alphabetic" transform="matrix(1, 0, 0, 1, 0.5, 0.5)" stroke-opacity="0" stroke-linejoin="bevel" stroke-miterlimit="10">500</text><text fill="rgb(68,68,68)" stroke="none" font-family="helvetica" font-size="11px" font-style="normal" font-weight="normal" text-decoration="normal" x="41.529296875" y="68.51143646240234" text-anchor="start" dominant-baseline="alphabetic" transform="matrix(1, 0, 0, 1, 0.5, 0.5)" fill-opacity="1">1000</text><text fill="none" stroke="rgb(0,0,0)" font-family="helvetica" font-size="11px" font-style="normal" font-weight="normal" text-decoration="normal" x="41.529296875" y="68.51143646240234" text-anchor="start" dominant-baseline="alphabetic" transform="matrix(1, 0, 0, 1, 0.5, 0.5)" stroke-opacity="0" stroke-linejoin="bevel" stroke-miterlimit="10">1000</text><text fill="rgb(68,68,68)" stroke="none" font-family="helvetica" font-size="11px" font-style="normal" font-weight="normal" text-decoration="normal" x="41.529296875" y="55.789878845214844" text-anchor="start" dominant-baseline="alphabetic" transform="matrix(1, 0, 0, 1, 0.5, 0.5)" fill-opacity="1">1500</text><text fill="none" stroke="rgb(0,0,0)" font-family="helvetica" font-size="11px" font-style="normal" font-weight="normal" text-decoration="normal" x="41.529296875" y="55.789878845214844" text-anchor="start" dominant-baseline="alphabetic" transform="matrix(1, 0, 0, 1, 0.5, 0.5)" stroke-opacity="0" stroke-linejoin="bevel" stroke-miterlimit="10">1500</text><text fill="rgb(68,68,68)" stroke="none" font-family="helvetica" font-size="11px" font-style="normal" font-weight="normal" text-decoration="normal" x="41.529296875" y="43.06832504272461" text-anchor="start" dominant-baseline="alphabetic" transform="matrix(1, 0, 0, 1, 0.5, 0.5)" fill-opacity="1">2000</text><text fill="none" stroke="rgb(0,0,0)" font-family="helvetica" font-size="11px" font-style="normal" font-weight="normal" text-decoration="normal" x="41.529296875" y="43.06832504272461" text-anchor="start" dominant-baseline="alphabetic" transform="matrix(1, 0, 0, 1, 0.5, 0.5)" stroke-opacity="0" stroke-linejoin="bevel" stroke-miterlimit="10">2000</text><text fill="rgb(68,68,68)" stroke="none" font-family="helvetica" font-size="11px" font-style="normal" font-weight="normal" text-decoration="normal" x="41.529296875" y="30.346769332885742" text-anchor="start" dominant-baseline="alphabetic" transform="matrix(1, 0, 0, 1, 0.5, 0.5)" fill-opacity="1">2500</text><text fill="none" stroke="rgb(0,0,0)" font-family="helvetica" font-size="11px" font-style="normal" font-weight="normal" text-decoration="normal" x="41.529296875" y="30.346769332885742" text-anchor="start" dominant-baseline="alphabetic" transform="matrix(1, 0, 0, 1, 0.5, 0.5)" stroke-opacity="0" stroke-linejoin="bevel" stroke-miterlimit="10">2500</text><text fill="rgb(68,68,68)" stroke="none" font-family="helvetica" font-size="11px" font-style="normal" font-weight="normal" text-decoration="normal" x="41.529296875" y="17.62521457672119" text-anchor="start" dominant-baseline="alphabetic" transform="matrix(1, 0, 0, 1, 0.5, 0.5)" fill-opacity="1">3000</text><text fill="none" stroke="rgb(0,0,0)" font-family="helvetica" font-size="11px" font-style="normal" font-weight="normal" text-decoration="normal" x="41.529296875" y="17.62521457672119" text-anchor="start" dominant-baseline="alphabetic" transform="matrix(1, 0, 0, 1, 0.5, 0.5)" stroke-opacity="0" stroke-linejoin="bevel" stroke-miterlimit="10">3000</text><text fill="rgb(68,68,68)" stroke="none" font-family="helvetica" font-size="9pt" font-style="italic" font-weight="normal" text-decoration="normal" x="5.8525390625" y="29.7" text-anchor="start" dominant-baseline="alphabetic" transform="matrix(6.123233995736766e-17, -1, 1, 6.123233995736766e-17, -15.470703125, 83.529296875)" fill-opacity="1">Spikes / s </text><text fill="none" stroke="rgb(0,0,0)" font-family="helvetica" font-size="9pt" font-style="italic" font-weight="normal" text-decoration="normal" x="5.8525390625" y="29.7" text-anchor="start" dominant-baseline="alphabetic" transform="matrix(6.123233995736766e-17, -1, 1, 6.123233995736766e-17, -15.470703125, 83.529296875)" stroke-opacity="0" stroke-linejoin="bevel" stroke-miterlimit="10">Spikes / s </text><text fill="rgb(68,68,68)" stroke="none" font-family="helvetica" font-size="9pt" font-style="italic" font-weight="normal" text-decoration="normal" x="-11.1572265625" y="46.5" text-anchor="start" dominant-baseline="alphabetic" transform="matrix(6.123233995736766e-17, -1, 1, 6.123233995736766e-17, -15.470703125, 83.529296875)" fill-opacity="1"> / stimulus_index</text><text fill="none" stroke="rgb(0,0,0)" font-family="helvetica" font-size="9pt" font-style="italic" font-weight="normal" text-decoration="normal" x="-11.1572265625" y="46.5" text-anchor="start" dominant-baseline="alphabetic" transform="matrix(6.123233995736766e-17, -1, 1, 6.123233995736766e-17, -15.470703125, 83.529296875)" stroke-opacity="0" stroke-linejoin="bevel" stroke-miterlimit="10"> / stimulus_index</text></svg>