<svg version="1.1" xmlns="http://www.w3.org/2000/svg" width="1400" height="50"><defs><clipPath id="rrLtECEpTICc"><path fill="none" stroke="none" d="M 77.5 5.5 L 1370.5 5.5 L 1370.5 44.5 L 77.5 44.5 L 77.5 5.5 Z"/></clipPath><clipPath id="ITFgDrXDmrIv"><path fill="none" stroke="none" d="M 77.5 5.5 L 1370.5 5.5 L 1370.5 44.5 L 77.5 44.5 L 77.5 5.5 Z"/></clipPath><clipPath id="LxxAwJVEUiCq"><path fill="none" stroke="none" d="M 77.5 5.5 L 1370.5 5.5 L 1370.5 44.5 L 77.5 44.5 L 77.5 5.5 Z"/></clipPath><clipPath id="KouVPcBPwnSJ"><path fill="none" stroke="none" d="M 77.5 5.5 L 1370.5 5.5 L 1370.5 44.5 L 77.5 44.5 L 77.5 5.5 Z"/></clipPath><clipPath id="uIazvOihrXAe"><path fill="none" stroke="none" d="M 77.5 5.5 L 1370.5 5.5 L 1370.5 44.5 L 77.5 44.5 L 77.5 5.5 Z"/></clipPath><clipPath id="LOGnZTGCkiaG"><path fill="none" stroke="none" d="M 77.5 5.5 L 1370.5 5.5 L 1370.5 44.5 L 77.5 44.5 L 77.5 5.5 Z"/></clipPath><clipPath id="UvJdclEsGVSM"><path fill="none" stroke="none" d="M 77.5 5.5 L 1370.5 5.5 L 1370.5 44.5 L 77.5 44.5 L 77.5 5.5 Z"/></clipPath><clipPath id="THHEAwABmDuT"><path fill="none" stroke="none" d="M 77.5 5.5 L 1370.5 5.5 L 1370.5 44.5 L 77.5 44.5 L 77.5 5.5 Z"/></clipPath><clipPath id="HXrbdHcysMym"><path fill="none" stroke="none" d="M 77.5 5.5 L 1370.5 5.5 L 1370.5 44.5 L 77.5 44.5 L 77.5 5.5 Z"/></clipPath><clipPath id="aVToWqaHsaix"><path fill="none" stroke="none" d="M 77.5 5.5 L 1370.5 5.5 L 1370.5 44.5 L 77.5 44.5 L 77.5 5.5 Z"/></clipPath><clipPath id="TVZnoeMxxviM"><path fill="none" stroke="none" d="M 77.5 5.5 L 1370.5 5.5 L 1370.5 44.5 L 77.5 44.5 L 77.5 5.5 Z"/></clipPath><clipPath id="MoXMGZtNfSbi"><path fill="none" stroke="none" d="M 77.5 5.5 L 1370.5 5.5 L 1370.5 44.5 L 77.5 44.5 L 77.5 5.5 Z"/></clipPath><clipPath id="TTVinAeJqdSF"><path fill="none" stroke="none" d="M 77.5 5.5 L 1370.5 5.5 L 1370.5 44.5 L 77.5 44.5 L 77.5 5.5 Z"/></clipPath><clipPath id="sHrlubaUpMPy"><path fill="none" stroke="none" d="M 77.5 5.5 L 1370.5 5.5 L 1370.5 44.5 L 77.5 44.5 L 77.5 5.5 Z"/></clipPath><clipPath id="oDgkVPemSXAy"><path fill="none" stroke="none" d="M 77.5 5.5 L 1370.5 5.5 L 1370.5 44.5 L 77.5 44.5 L 77.5 5.5 Z"/></clipPath><clipPath id="DiPQliizSqQL"><path fill="none" stroke="none" d="M 77.5 5.5 L 1370.5 5.5 L 1370.5 44.5 L 77.5 44.5 L 77.5 5.5 Z"/></clipPath></defs><path fill="rgb(255,255,255)" stroke="none" paint-order="stroke" d="M 0.5 0.5 L 1400.5 0.5 L 1400.5 50.5 L 0.5 50.5 L 0.5 0.5 Z" fill-opacity="1"/><rect fill="#FFFFFF" stroke="none" x="77" y="5" width="1293" height="39" transform="matrix(1, 0, 0, 1, 0.5, 0.5)"/><path fill="rgb(255,255,255)" stroke="none" paint-order="stroke" d="M 77.5 5.5 L 1370.5 5.5 L 1370.5 44.5 L 77.5 44.5 L 77.5 5.5 Z" fill-opacity="1"/><path fill="none" stroke="rgb(229,229,229)" paint-order="fill" d="M 77.5 5.5 L 1370.5 5.5 L 1370.5 44.5 L 77.5 44.5 L 77.5 5.5 Z" stroke-opacity="1" stroke-linejoin="bevel" stroke-miterlimit="10"/><path fill="rgb(254,124,124)" stroke="rgb(254,124,124)" paint-order="fill" d="M 136.27272033691406 42.727272033691406 L 136.27272033691406 7.2727274894714355 L 234.1893310546875 7.2727274894714355 L 234.1893310546875 42.727272033691406 Z" fill-opacity="0.8" clip-path="url(#LxxAwJVEUiCq)" stroke-opacity="0.8" stroke-linejoin="bevel" stroke-miterlimit="10" stroke-width="2"/><path fill="rgb(0,0,0)" stroke="rgb(0,0,0)" paint-order="fill" d="M 234.1893310546875 42.727272033691406 L 234.1893310546875 7.2727274894714355 L 332.1059265136719 7.2727274894714355 L 332.1059265136719 42.727272033691406 Z" fill-opacity="0.8" clip-path="url(#LxxAwJVEUiCq)" stroke-opacity="0.8" stroke-linejoin="bevel" stroke-miterlimit="10" stroke-width="2"/><path fill="rgb(250,254,124)" stroke="rgb(250,254,124)" paint-order="fill" d="M 332.1059265136719 42.727272033691406 L 332.1059265136719 7.2727274894714355 L 430.02252197265625 7.2727274894714355 L 430.02252197265625 42.727272033691406 Z" fill-opacity="0.8" clip-path="url(#LxxAwJVEUiCq)" stroke-opacity="0.8" stroke-linejoin="bevel" stroke-miterlimit="10" stroke-width="2"/><path fill="rgb(0,0,0)" stroke="rgb(0,0,0)" paint-order="fill" d="M 430.02252197265625 42.727272033691406 L 430.02252197265625 7.2727274894714355 L 527.9391479492188 7.2727274894714355 L 527.9391479492188 42.727272033691406 Z" fill-opacity="0.8" clip-path="url(#LxxAwJVEUiCq)" stroke-opacity="0.8" stroke-linejoin="bevel" stroke-miterlimit="10" stroke-width="2"/><path fill="rgb(138,254,124)" stroke="rgb(138,254,124)" paint-order="fill" d="M 527.9391479492188 42.727272033691406 L 527.9391479492188 7.2727274894714355 L 625.855712890625 7.2727274894714355 L 625.855712890625 42.727272033691406 Z" fill-opacity="0.8" clip-path="url(#LxxAwJVEUiCq)" stroke-opacity="0.8" stroke-linejoin="bevel" stroke-miterlimit="10" stroke-width="2"/><path fill="rgb(0,0,0)" stroke="rgb(0,0,0)" paint-order="fill" d="M 625.855712890625 42.727272033691406 L 625.855712890625 7.2727274894714355 L 723.7723388671875 7.2727274894714355 L 723.7723388671875 42.727272033691406 Z" fill-opacity="0.8" clip-path="url(#LxxAwJVEUiCq)" stroke-opacity="0.8" stroke-linejoin="bevel" stroke-miterlimit="10" stroke-width="2"/><path fill="rgb(124,252,254)" stroke="rgb(124,252,254)" paint-order="fill" d="M 723.7723388671875 42.727272033691406 L 723.7723388671875 7.2727274894714355 L 821.68896484375 7.2727274894714355 L 821.68896484375 42.727272033691406 Z" fill-opacity="0.8" clip-path="url(#LxxAwJVEUiCq)" stroke-opacity="0.8" stroke-linejoin="bevel" stroke-miterlimit="10" stroke-width="2"/><path fill="rgb(0,0,0)" stroke="rgb(0,0,0)" paint-order="fill" d="M 821.68896484375 42.727272033691406 L 821.68896484375 7.2727274894714355 L 919.6055297851562 7.2727274894714355 L 919.6055297851562 42.727272033691406 Z" fill-opacity="0.8" clip-path="url(#LxxAwJVEUiCq)" stroke-opacity="0.8" stroke-linejoin="bevel" stroke-miterlimit="10" stroke-width="2"/><path fill="rgb(124,134,254)" stroke="rgb(124,134,254)" paint-order="fill" d="M 919.6055297851562 42.727272033691406 L 919.6055297851562 7.2727274894714355 L 1017.5221557617188 7.2727274894714355 L 1017.5221557617188 42.727272033691406 Z" fill-opacity="0.8" clip-path="url(#LxxAwJVEUiCq)" stroke-opacity="0.8" stroke-linejoin="bevel" stroke-miterlimit="10" stroke-width="2"/><path fill="rgb(0,0,0)" stroke="rgb(0,0,0)" paint-order="fill" d="M 1017.5221557617188 42.727272033691406 L 1017.5221557617188 7.2727274894714355 L 1115.438720703125 7.2727274894714355 L 1115.438720703125 42.727272033691406 Z" fill-opacity="0.8" clip-path="url(#LxxAwJVEUiCq)" stroke-opacity="0.8" stroke-linejoin="bevel" stroke-miterlimit="10" stroke-width="2"/><path fill="rgb(254,124,254)" stroke="rgb(254,124,254)" paint-order="fill" d="M 1115.438720703125 42.727272033691406 L 1115.438720703125 7.2727274894714355 L 1213.3553466796875 7.2727274894714355 L 1213.3553466796875 42.727272033691406 Z" fill-opacity="0.8" clip-path="url(#LxxAwJVEUiCq)" stroke-opacity="0.8" stroke-linejoin="bevel" stroke-miterlimit="10" stroke-width="2"/><path fill="rgb(0,0,0)" stroke="rgb(0,0,0)" paint-order="fill" d="M 1213.3553466796875 42.727272033691406 L 1213.3553466796875 7.2727274894714355 L 1311.27197265625 7.2727274894714355 L 1311.27197265625 42.727272033691406 Z" fill-opacity="0.8" clip-path="url(#LxxAwJVEUiCq)" stroke-opacity="0.8" stroke-linejoin="bevel" stroke-miterlimit="10" stroke-width="2"/><path fill="none" stroke="rgb(0,0,0)" paint-order="fill" d="M 77.5 44.5 L 1370.5 44.5" stroke-opacity="1" stroke-linejoin="bevel" stroke-miterlimit="10"/><text fill="rgb(68,68,68)" stroke="none" font-family="helvetica" font-size="0pt" font-style="normal" font-weight="normal" text-decoration="normal" x="135.77272033691406" y="55" text-anchor="start" dominant-baseline="alphabetic" transform="matrix(1, 0, 0, 1, 0.5, 0.5)" fill-opacity="1">0</text><text fill="none" stroke="rgb(0,0,0)" font-family="helvetica" font-size="0pt" font-style="normal" font-weight="normal" text-decoration="normal" x="135.77272033691406" y="55" text-anchor="start" dominant-baseline="alphabetic" transform="matrix(1, 0, 0, 1, 0.5, 0.5)" stroke-opacity="0" stroke-linejoin="bevel" stroke-miterlimit="10">0</text><text fill="rgb(68,68,68)" stroke="none" font-family="helvetica" font-size="0pt" font-style="normal" font-weight="normal" text-decoration="normal" x="380.5642395019531" y="55" text-anchor="start" dominant-baseline="alphabetic" transform="matrix(1, 0, 0, 1, 0.5, 0.5)" fill-opacity="1">5</text><text fill="none" stroke="rgb(0,0,0)" font-family="helvetica" font-size="0pt" font-style="normal" font-weight="normal" text-decoration="normal" x="380.5642395019531" y="55" text-anchor="start" dominant-baseline="alphabetic" transform="matrix(1, 0, 0, 1, 0.5, 0.5)" stroke-opacity="0" stroke-linejoin="bevel" stroke-miterlimit="10">5</text><text fill="rgb(68,68,68)" stroke="none" font-family="helvetica" font-size="0pt" font-style="normal" font-weight="normal" text-decoration="normal" x="625.355712890625" y="55" text-anchor="start" dominant-baseline="alphabetic" transform="matrix(1, 0, 0, 1, 0.5, 0.5)" fill-opacity="1">10</text><text fill="none" stroke="rgb(0,0,0)" font-family="helvetica" font-size="0pt" font-style="normal" font-weight="normal" text-decoration="normal" x="625.355712890625" y="55" text-anchor="start" dominant-baseline="alphabetic" transform="matrix(1, 0, 0, 1, 0.5, 0.5)" stroke-opacity="0" stroke-linejoin="bevel" stroke-miterlimit="10">10</text><text fill="rgb(68,68,68)" stroke="none" font-family="helvetica" font-size="0pt" font-style="normal" font-weight="normal" text-decoration="normal" x="870.1472778320312" y="55" text-anchor="start" dominant-baseline="alphabetic" transform="matrix(1, 0, 0, 1, 0.5, 0.5)" fill-opacity="1">15</text><text fill="none" stroke="rgb(0,0,0)" font-family="helvetica" font-size="0pt" font-style="normal" font-weight="normal" text-decoration="normal" x="870.1472778320312" y="55" text-anchor="start" dominant-baseline="alphabetic" transform="matrix(1, 0, 0, 1, 0.5, 0.5)" stroke-opacity="0" stroke-linejoin="bevel" stroke-miterlimit="10">15</text><text fill="rgb(68,68,68)" stroke="none" font-family="helvetica" font-size="0pt" font-style="normal" font-weight="normal" text-decoration="normal" x="1114.938720703125" y="55" text-anchor="start" dominant-baseline="alphabetic" transform="matrix(1, 0, 0, 1, 0.5, 0.5)" fill-opacity="1">20</text><text fill="none" stroke="rgb(0,0,0)" font-family="helvetica" font-size="0pt" font-style="normal" font-weight="normal" text-decoration="normal" x="1114.938720703125" y="55" text-anchor="start" dominant-baseline="alphabetic" transform="matrix(1, 0, 0, 1, 0.5, 0.5)" stroke-opacity="0" stroke-linejoin="bevel" stroke-miterlimit="10">20</text><text fill="rgb(68,68,68)" stroke="none" font-family="helvetica" font-size="0pt" font-style="normal" font-weight="normal" text-decoration="normal" x="1359.730224609375" y="55" text-anchor="start" dominant-baseline="alphabetic" transform="matrix(1, 0, 0, 1, 0.5, 0.5)" fill-opacity="1">25</text><text fill="none" stroke="rgb(0,0,0)" font-family="helvetica" font-size="0pt" font-style="normal" font-weight="normal" text-decoration="normal" x="1359.730224609375" y="55" text-anchor="start" dominant-baseline="alphabetic" transform="matrix(1, 0, 0, 1, 0.5, 0.5)" stroke-opacity="0" stroke-linejoin="bevel" stroke-miterlimit="10">25</text><path fill="none" stroke="rgb(0,0,0)" paint-order="fill" d="M 77.5 44.5 L 77.5 5.5" stroke-opacity="1" stroke-linejoin="bevel" stroke-miterlimit="10"/><text fill="rgb(68,68,68)" stroke="none" font-family="helvetica" font-size="0pt" font-style="normal" font-weight="normal" text-decoration="normal" x="66" y="42.227272033691406" text-anchor="start" dominant-baseline="alphabetic" transform="matrix(1, 0, 0, 1, 0.5, 0.5)" fill-opacity="1">0</text><text fill="none" stroke="rgb(0,0,0)" font-family="helvetica" font-size="0pt" font-style="normal" font-weight="normal" text-decoration="normal" x="66" y="42.227272033691406" text-anchor="start" dominant-baseline="alphabetic" transform="matrix(1, 0, 0, 1, 0.5, 0.5)" stroke-opacity="0" stroke-linejoin="bevel" stroke-miterlimit="10">0</text><text fill="rgb(68,68,68)" stroke="none" font-family="helvetica" font-size="0pt" font-style="normal" font-weight="normal" text-decoration="normal" x="66" y="33.3636360168457" text-anchor="start" dominant-baseline="alphabetic" transform="matrix(1, 0, 0, 1, 0.5, 0.5)" fill-opacity="1">0.5</text><text fill="none" stroke="rgb(0,0,0)" font-family="helvetica" font-size="0pt" font-style="normal" font-weight="normal" text-decoration="normal" x="66" y="33.3636360168457" text-anchor="start" dominant-baseline="alphabetic" transform="matrix(1, 0, 0, 1, 0.5, 0.5)" stroke-opacity="0" stroke-linejoin="bevel" stroke-miterlimit="10">0.5</text><text fill="rgb(68,68,68)" stroke="none" font-family="helvetica" font-size="0pt" font-style="normal" font-weight="normal" text-decoration="normal" x="66" y="24.5" text-anchor="start" dominant-baseline="alphabetic" transform="matrix(1, 0, 0, 1, 0.5, 0.5)" fill-opacity="1">1</text><text fill="none" stroke="rgb(0,0,0)" font-family="helvetica" font-size="0pt" font-style="normal" font-weight="normal" text-decoration="normal" x="66" y="24.5" text-anchor="start" dominant-baseline="alphabetic" transform="matrix(1, 0, 0, 1, 0.5, 0.5)" stroke-opacity="0" stroke-linejoin="bevel" stroke-miterlimit="10">1</text><text fill="rgb(68,68,68)" stroke="none" font-family="helvetica" font-size="0pt" font-style="normal" font-weight="normal" text-decoration="normal" x="66" y="15.636363983154297" text-anchor="start" dominant-baseline="alphabetic" transform="matrix(1, 0, 0, 1, 0.5, 0.5)" fill-opacity="1">1.5</text><text fill="none" stroke="rgb(0,0,0)" font-family="helvetica" font-size="0pt" font-style="normal" font-weight="normal" text-decoration="normal" x="66" y="15.636363983154297" text-anchor="start" dominant-baseline="alphabetic" transform="matrix(1, 0, 0, 1, 0.5, 0.5)" stroke-opacity="0" stroke-linejoin="bevel" stroke-miterlimit="10">1.5</text><text fill="rgb(68,68,68)" stroke="none" font-family="helvetica" font-size="0pt" font-style="normal" font-weight="normal" text-decoration="normal" x="66" y="6.7727274894714355" text-anchor="start" dominant-baseline="alphabetic" transform="matrix(1, 0, 0, 1, 0.5, 0.5)" fill-opacity="1">2</text><text fill="none" stroke="rgb(0,0,0)" font-family="helvetica" font-size="0pt" font-style="normal" font-weight="normal" text-decoration="normal" x="66" y="6.7727274894714355" text-anchor="start" dominant-baseline="alphabetic" transform="matrix(1, 0, 0, 1, 0.5, 0.5)" stroke-opacity="0" stroke-linejoin="bevel" stroke-miterlimit="10">2</text><text fill="rgb(68,68,68)" stroke="none" font-family="helvetica" font-size="13px" font-style="italic" font-weight="normal" text-decoration="normal" x="16.15185546875" y="29" text-anchor="start" dominant-baseline="alphabetic" transform="matrix(1, 0, 0, 1, 0.5, 0.5)" fill-opacity="1">Stimulus</text><text fill="none" stroke="rgb(0,0,0)" font-family="helvetica" font-size="13px" font-style="italic" font-weight="normal" text-decoration="normal" x="16.15185546875" y="29" text-anchor="start" dominant-baseline="alphabetic" transform="matrix(1, 0, 0, 1, 0.5, 0.5)" stroke-opacity="0" stroke-linejoin="bevel" stroke-miterlimit="10">Stimulus</text><g clip-path="url(#KouVPcBPwnSJ)"><text fill="rgb(0,0,0)" stroke="none" font-family="helvetica" font-size="11pt" font-style="normal" font-weight="normal" text-decoration="normal" x="154.17331991797877" y="21.5" text-anchor="start" dominant-baseline="alphabetic" transform="matrix(1, 0, 0, 1, 0.5, 0.5)" fill-opacity="1">LED_610</text></g><g clip-path="url(#KouVPcBPwnSJ)"><text fill="none" stroke="rgb(0,0,0)" font-family="helvetica" font-size="11pt" font-style="normal" font-weight="normal" text-decoration="normal" x="154.17331991797877" y="21.5" text-anchor="start" dominant-baseline="alphabetic" transform="matrix(1, 0, 0, 1, 0.5, 0.5)" stroke-opacity="0" stroke-miterlimit="10" stroke-dasharray="">LED_610</text></g><g clip-path="url(#uIazvOihrXAe)"><text fill="rgb(255,255,255)" stroke="none" font-family="helvetica" font-size="11pt" font-style="normal" font-weight="normal" text-decoration="normal" x="233.36169698094267" y="21.5" text-anchor="start" dominant-baseline="alphabetic" transform="matrix(1, 0, 0, 1, 0.5, 0.5)" fill-opacity="1">LED_610_OFF</text></g><g clip-path="url(#uIazvOihrXAe)"><text fill="none" stroke="rgb(0,0,0)" font-family="helvetica" font-size="11pt" font-style="normal" font-weight="normal" text-decoration="normal" x="233.36169698094267" y="21.5" text-anchor="start" dominant-baseline="alphabetic" transform="matrix(1, 0, 0, 1, 0.5, 0.5)" stroke-opacity="0" stroke-miterlimit="10" stroke-dasharray="">LED_610_OFF</text></g><g clip-path="url(#LOGnZTGCkiaG)"><text fill="rgb(0,0,0)" stroke="none" font-family="helvetica" font-size="11pt" font-style="normal" font-weight="normal" text-decoration="normal" x="350.00652545992216" y="21.5" text-anchor="start" dominant-baseline="alphabetic" transform="matrix(1, 0, 0, 1, 0.5, 0.5)" fill-opacity="1">LED_560</text></g><g clip-path="url(#LOGnZTGCkiaG)"><text fill="none" stroke="rgb(0,0,0)" font-family="helvetica" font-size="11pt" font-style="normal" font-weight="normal" text-decoration="normal" x="350.00652545992216" y="21.5" text-anchor="start" dominant-baseline="alphabetic" transform="matrix(1, 0, 0, 1, 0.5, 0.5)" stroke-opacity="0" stroke-miterlimit="10" stroke-dasharray="">LED_560</text></g><g clip-path="url(#UvJdclEsGVSM)"><text fill="rgb(255,255,255)" stroke="none" font-family="helvetica" font-size="11pt" font-style="normal" font-weight="normal" text-decoration="normal" x="429.194902522886" y="21.5" text-anchor="start" dominant-baseline="alphabetic" transform="matrix(1, 0, 0, 1, 0.5, 0.5)" fill-opacity="1">LED_560_OFF</text></g><g clip-path="url(#UvJdclEsGVSM)"><text fill="none" stroke="rgb(0,0,0)" font-family="helvetica" font-size="11pt" font-style="normal" font-weight="normal" text-decoration="normal" x="429.194902522886" y="21.5" text-anchor="start" dominant-baseline="alphabetic" transform="matrix(1, 0, 0, 1, 0.5, 0.5)" stroke-opacity="0" stroke-miterlimit="10" stroke-dasharray="">LED_560_OFF</text></g><g clip-path="url(#THHEAwABmDuT)"><text fill="rgb(0,0,0)" stroke="none" font-family="helvetica" font-size="11pt" font-style="normal" font-weight="normal" text-decoration="normal" x="545.8397310018656" y="21.5" text-anchor="start" dominant-baseline="alphabetic" transform="matrix(1, 0, 0, 1, 0.5, 0.5)" fill-opacity="1">LED_535</text></g><g clip-path="url(#THHEAwABmDuT)"><text fill="none" stroke="rgb(0,0,0)" font-family="helvetica" font-size="11pt" font-style="normal" font-weight="normal" text-decoration="normal" x="545.8397310018656" y="21.5" text-anchor="start" dominant-baseline="alphabetic" transform="matrix(1, 0, 0, 1, 0.5, 0.5)" stroke-opacity="0" stroke-miterlimit="10" stroke-dasharray="">LED_535</text></g><g clip-path="url(#HXrbdHcysMym)"><text fill="rgb(255,255,255)" stroke="none" font-family="helvetica" font-size="11pt" font-style="normal" font-weight="normal" text-decoration="normal" x="625.0281080648294" y="21.5" text-anchor="start" dominant-baseline="alphabetic" transform="matrix(1, 0, 0, 1, 0.5, 0.5)" fill-opacity="1">LED_535_OFF</text></g><g clip-path="url(#HXrbdHcysMym)"><text fill="none" stroke="rgb(0,0,0)" font-family="helvetica" font-size="11pt" font-style="normal" font-weight="normal" text-decoration="normal" x="625.0281080648294" y="21.5" text-anchor="start" dominant-baseline="alphabetic" transform="matrix(1, 0, 0, 1, 0.5, 0.5)" stroke-opacity="0" stroke-miterlimit="10" stroke-dasharray="">LED_535_OFF</text></g><g clip-path="url(#aVToWqaHsaix)"><text fill="rgb(0,0,0)" stroke="none" font-family="helvetica" font-size="11pt" font-style="normal" font-weight="normal" text-decoration="normal" x="741.6729365438089" y="21.5" text-anchor="start" dominant-baseline="alphabetic" transform="matrix(1, 0, 0, 1, 0.5, 0.5)" fill-opacity="1">LED_460</text></g><g clip-path="url(#aVToWqaHsaix)"><text fill="none" stroke="rgb(0,0,0)" font-family="helvetica" font-size="11pt" font-style="normal" font-weight="normal" text-decoration="normal" x="741.6729365438089" y="21.5" text-anchor="start" dominant-baseline="alphabetic" transform="matrix(1, 0, 0, 1, 0.5, 0.5)" stroke-opacity="0" stroke-miterlimit="10" stroke-dasharray="">LED_460</text></g><g clip-path="url(#TVZnoeMxxviM)"><text fill="rgb(255,255,255)" stroke="none" font-family="helvetica" font-size="11pt" font-style="normal" font-weight="normal" text-decoration="normal" x="820.8613136067729" y="21.5" text-anchor="start" dominant-baseline="alphabetic" transform="matrix(1, 0, 0, 1, 0.5, 0.5)" fill-opacity="1">LED_460_OFF</text></g><g clip-path="url(#TVZnoeMxxviM)"><text fill="none" stroke="rgb(0,0,0)" font-family="helvetica" font-size="11pt" font-style="normal" font-weight="normal" text-decoration="normal" x="820.8613136067729" y="21.5" text-anchor="start" dominant-baseline="alphabetic" transform="matrix(1, 0, 0, 1, 0.5, 0.5)" stroke-opacity="0" stroke-miterlimit="10" stroke-dasharray="">LED_460_OFF</text></g><g clip-path="url(#MoXMGZtNfSbi)"><text fill="rgb(0,0,0)" stroke="none" font-family="helvetica" font-size="11pt" font-style="normal" font-weight="normal" text-decoration="normal" x="937.5061420857523" y="21.5" text-anchor="start" dominant-baseline="alphabetic" transform="matrix(1, 0, 0, 1, 0.5, 0.5)" fill-opacity="1">LED_420</text></g><g clip-path="url(#MoXMGZtNfSbi)"><text fill="none" stroke="rgb(0,0,0)" font-family="helvetica" font-size="11pt" font-style="normal" font-weight="normal" text-decoration="normal" x="937.5061420857523" y="21.5" text-anchor="start" dominant-baseline="alphabetic" transform="matrix(1, 0, 0, 1, 0.5, 0.5)" stroke-opacity="0" stroke-miterlimit="10" stroke-dasharray="">LED_420</text></g><g clip-path="url(#TTVinAeJqdSF)"><text fill="rgb(255,255,255)" stroke="none" font-family="helvetica" font-size="11pt" font-style="normal" font-weight="normal" text-decoration="normal" x="1016.6945191487162" y="21.5" text-anchor="start" dominant-baseline="alphabetic" transform="matrix(1, 0, 0, 1, 0.5, 0.5)" fill-opacity="1">LED_420_OFF</text></g><g clip-path="url(#TTVinAeJqdSF)"><text fill="none" stroke="rgb(0,0,0)" font-family="helvetica" font-size="11pt" font-style="normal" font-weight="normal" text-decoration="normal" x="1016.6945191487162" y="21.5" text-anchor="start" dominant-baseline="alphabetic" transform="matrix(1, 0, 0, 1, 0.5, 0.5)" stroke-opacity="0" stroke-miterlimit="10" stroke-dasharray="">LED_420_OFF</text></g><g clip-path="url(#sHrlubaUpMPy)"><text fill="rgb(0,0,0)" stroke="none" font-family="helvetica" font-size="11pt" font-style="normal" font-weight="normal" text-decoration="normal" x="1133.3393476276956" y="21.5" text-anchor="start" dominant-baseline="alphabetic" transform="matrix(1, 0, 0, 1, 0.5, 0.5)" fill-opacity="1">LED_365</text></g><g clip-path="url(#sHrlubaUpMPy)"><text fill="none" stroke="rgb(0,0,0)" font-family="helvetica" font-size="11pt" font-style="normal" font-weight="normal" text-decoration="normal" x="1133.3393476276956" y="21.5" text-anchor="start" dominant-baseline="alphabetic" transform="matrix(1, 0, 0, 1, 0.5, 0.5)" stroke-opacity="0" stroke-miterlimit="10" stroke-dasharray="">LED_365</text></g><g clip-path="url(#oDgkVPemSXAy)"><text fill="rgb(255,255,255)" stroke="none" font-family="helvetica" font-size="11pt" font-style="normal" font-weight="normal" text-decoration="normal" x="1212.5277246906596" y="21.5" text-anchor="start" dominant-baseline="alphabetic" transform="matrix(1, 0, 0, 1, 0.5, 0.5)" fill-opacity="1">LED_365_OFF</text></g><g clip-path="url(#oDgkVPemSXAy)"><text fill="none" stroke="rgb(0,0,0)" font-family="helvetica" font-size="11pt" font-style="normal" font-weight="normal" text-decoration="normal" x="1212.5277246906596" y="21.5" text-anchor="start" dominant-baseline="alphabetic" transform="matrix(1, 0, 0, 1, 0.5, 0.5)" stroke-opacity="0" stroke-miterlimit="10" stroke-dasharray="">LED_365_OFF</text></g></svg>